<svg width="464" height="115" viewBox="0 0 464 115" fill="none" xmlns="http://www.w3.org/2000/svg">
<path d="M87.28 103.936V38.368H95.056V45.376H95.248C99.28 39.936 104.592 37.216 111.184 37.216C117.584 37.216 122.736 39.552 126.64 44.224C130.544 48.832 132.496 55.2 132.496 63.328C132.496 71.328 130.576 77.696 126.736 82.432C122.896 87.104 117.616 89.44 110.896 89.44C104.24 89.44 99.024 87.008 95.248 82.144H95.056V103.936H87.28ZM110.32 82.912C114.928 82.912 118.448 81.12 120.88 77.536C123.312 73.952 124.528 69.248 124.528 63.424C124.528 57.6 123.312 52.896 120.88 49.312C118.448 45.664 114.96 43.84 110.416 43.84C105.232 43.84 101.296 45.696 98.608 49.408C95.92 53.056 94.576 57.728 94.576 63.424C94.576 69.248 95.856 73.952 98.416 77.536C100.976 81.12 104.944 82.912 110.32 82.912ZM161.465 89.344C154.105 89.344 148.249 86.88 143.897 81.952C139.609 76.96 137.465 70.72 137.465 63.232C137.465 55.872 139.641 49.696 143.993 44.704C148.409 39.648 154.073 37.12 160.985 37.12C168.281 37.12 173.913 39.68 177.881 44.8C181.849 49.856 183.833 56.608 183.833 65.056H145.433C145.753 70.304 147.289 74.592 150.041 77.92C152.857 81.184 156.665 82.816 161.465 82.816C168.889 82.816 173.465 79.424 175.193 72.64H182.777C181.625 77.952 179.193 82.08 175.481 85.024C171.769 87.904 167.097 89.344 161.465 89.344ZM171.353 47.488C168.857 44.672 165.401 43.264 160.985 43.264C156.569 43.264 153.049 44.736 150.425 47.68C147.865 50.624 146.265 54.464 145.625 59.2H175.481C175.225 54.208 173.849 50.304 171.353 47.488ZM191.436 103.936V38.368H199.212V45.376H199.404C203.436 39.936 208.748 37.216 215.34 37.216C221.74 37.216 226.892 39.552 230.796 44.224C234.7 48.832 236.652 55.2 236.652 63.328C236.652 71.328 234.732 77.696 230.892 82.432C227.052 87.104 221.772 89.44 215.052 89.44C208.396 89.44 203.18 87.008 199.404 82.144H199.212V103.936H191.436ZM214.476 82.912C219.084 82.912 222.604 81.12 225.036 77.536C227.468 73.952 228.684 69.248 228.684 63.424C228.684 57.6 227.468 52.896 225.036 49.312C222.604 45.664 219.116 43.84 214.572 43.84C209.388 43.84 205.452 45.696 202.764 49.408C200.076 53.056 198.732 57.728 198.732 63.424C198.732 69.248 200.012 73.952 202.572 77.536C205.132 81.12 209.1 82.912 214.476 82.912Z" fill="#3B82F6"/>
<path d="M244.405 103.936V38.368H252.181V45.376H252.373C256.405 39.936 261.717 37.216 268.309 37.216C274.709 37.216 279.861 39.552 283.765 44.224C287.669 48.832 289.621 55.2 289.621 63.328C289.621 71.328 287.701 77.696 283.861 82.432C280.021 87.104 274.741 89.44 268.021 89.44C261.365 89.44 256.149 87.008 252.373 82.144H252.181V103.936H244.405ZM267.445 82.912C272.053 82.912 275.573 81.12 278.005 77.536C280.437 73.952 281.653 69.248 281.653 63.424C281.653 57.6 280.437 52.896 278.005 49.312C275.573 45.664 272.085 43.84 267.541 43.84C262.357 43.84 258.421 45.696 255.733 49.408C253.045 53.056 251.701 57.728 251.701 63.424C251.701 69.248 252.981 73.952 255.541 77.536C258.101 81.12 262.069 82.912 267.445 82.912ZM318.59 89.344C311.23 89.344 305.374 86.88 301.022 81.952C296.734 76.96 294.59 70.72 294.59 63.232C294.59 55.872 296.766 49.696 301.118 44.704C305.534 39.648 311.198 37.12 318.11 37.12C325.406 37.12 331.038 39.68 335.006 44.8C338.974 49.856 340.958 56.608 340.958 65.056H302.558C302.878 70.304 304.414 74.592 307.166 77.92C309.982 81.184 313.79 82.816 318.59 82.816C326.014 82.816 330.59 79.424 332.318 72.64H339.902C338.75 77.952 336.318 82.08 332.606 85.024C328.894 87.904 324.222 89.344 318.59 89.344ZM328.478 47.488C325.982 44.672 322.526 43.264 318.11 43.264C313.694 43.264 310.174 44.736 307.55 47.68C304.99 50.624 303.39 54.464 302.75 59.2H332.606C332.35 54.208 330.974 50.304 328.478 47.488ZM367.761 89.44C360.977 89.44 355.601 87.104 351.633 82.432C347.729 77.696 345.777 71.328 345.777 63.328C345.777 55.264 347.825 48.896 351.921 44.224C356.017 39.552 361.233 37.216 367.569 37.216C374.289 37.216 379.473 39.936 383.121 45.376H383.313V19.36H391.089V88H383.313V81.952H383.121C379.217 86.944 374.097 89.44 367.761 89.44ZM368.049 82.912C373.361 82.912 377.297 81.152 379.857 77.632C382.481 74.112 383.793 69.376 383.793 63.424C383.793 57.536 382.385 52.8 379.569 49.216C376.817 45.632 372.945 43.84 367.953 43.84C363.409 43.84 359.889 45.664 357.393 49.312C354.961 52.896 353.745 57.6 353.745 63.424C353.745 69.248 354.961 73.952 357.393 77.536C359.889 81.12 363.441 82.912 368.049 82.912ZM401.624 88V38.368H409.4V88H401.624ZM401.624 28.96V19.36H409.4V28.96H401.624ZM458.975 88.48C454.047 88.48 451.199 86.016 450.431 81.088H450.335C446.239 86.336 440.735 88.96 433.823 88.96C428.895 88.96 424.863 87.776 421.727 85.408C418.591 83.04 417.023 79.616 417.023 75.136C417.023 72.832 417.375 70.848 418.079 69.184C418.847 67.456 419.807 66.08 420.959 65.056C422.111 63.968 423.679 63.04 425.663 62.272C427.711 61.44 429.663 60.832 431.519 60.448C433.375 60 435.743 59.552 438.623 59.104C440.479 58.848 441.791 58.656 442.559 58.528C443.391 58.336 444.447 58.08 445.727 57.76C447.007 57.376 447.903 56.96 448.415 56.512C448.927 56.064 449.407 55.456 449.855 54.688C450.303 53.92 450.527 53.024 450.527 52C450.527 49.184 449.535 47.04 447.551 45.568C445.631 44.032 442.911 43.264 439.391 43.264C431.391 43.264 427.263 46.912 427.007 54.208H419.519C419.647 49.152 421.375 45.088 424.703 42.016C428.095 38.944 432.959 37.408 439.295 37.408C451.519 37.408 457.631 42.656 457.631 53.152V76.768C457.631 78.944 457.983 80.48 458.687 81.376C459.455 82.272 460.863 82.496 462.911 82.048H463.199V87.712C461.919 88.224 460.511 88.48 458.975 88.48ZM435.551 83.008C440.351 83.008 444.063 81.632 446.687 78.88C449.311 76.064 450.623 72.992 450.623 69.664V61.216C448.255 62.688 444.479 63.904 439.295 64.864C437.375 65.248 435.871 65.568 434.783 65.824C433.695 66.016 432.447 66.4 431.039 66.976C429.631 67.488 428.575 68.064 427.871 68.704C427.167 69.344 426.559 70.208 426.047 71.296C425.535 72.32 425.279 73.536 425.279 74.944C425.279 80.32 428.703 83.008 435.551 83.008Z" fill="#111827"/>
<g clip-path="url(#clip0_1946_2648)">
<path d="M27.0196 55.2018C24.6936 55.9323 22.1762 54.9134 21.0092 52.7734C20.7989 52.3583 20.427 52.0484 19.9823 51.9109C19.5402 51.7734 19.0578 51.8219 18.6508 52.043C18.2411 52.2667 17.9392 52.644 17.8153 53.0914C17.6886 53.5388 17.7479 54.0186 17.9797 54.4202C19.4809 57.1748 22.365 58.8863 25.5018 58.889C26.3697 58.889 27.2322 58.7569 28.0597 58.4955C28.968 58.2071 29.472 57.2395 29.1863 56.3311C28.9006 55.4201 27.9303 54.9161 27.022 55.2018L27.0196 55.2018Z" fill="#3B82F6"/>
<path d="M27.3718 69.6436C24.2802 68.6814 20.9139 69.5762 18.7088 71.9427C17.2021 70.8349 15.3666 70.2689 13.4988 70.3336C13.0433 70.3471 12.6093 70.5438 12.2967 70.8781C11.9841 71.2123 11.8169 71.657 11.8331 72.1125C11.8412 72.5707 12.0353 73.0073 12.3695 73.32C12.7037 73.6354 13.1511 73.7998 13.6093 73.7809C15.151 73.7351 16.628 74.4008 17.6172 75.5868C17.6442 75.6218 17.6846 75.6326 17.7142 75.6622C17.8301 75.797 17.9703 75.9129 18.1212 76.0045C18.1401 76.0045 18.159 76.0045 18.1751 76.018C18.4096 76.1393 18.6684 76.2067 18.9325 76.2121H18.9487C19.2155 76.204 19.4797 76.1339 19.7141 76.0045C19.7707 75.9776 19.8273 75.9452 19.8812 75.9102C19.9378 75.8833 19.9918 75.8509 20.0457 75.8186C20.1993 75.6892 20.326 75.5329 20.4257 75.3577C20.4257 75.3415 20.4527 75.3361 20.4634 75.3199V75.3226C21.6008 73.2284 24.0617 72.2338 26.3336 72.9453C27.2419 73.2311 28.2122 72.727 28.498 71.8187C28.7837 70.9104 28.2796 69.9401 27.3713 69.6543L27.3718 69.6436Z" fill="#3B82F6"/>
<path d="M66.6019 55.6762C67.5533 55.6762 68.3269 54.9053 68.3269 53.9512C68.3269 52.9997 67.5533 52.2262 66.6019 52.2262H62.9713C62.8392 49.7195 61.8446 47.3369 60.1573 45.4768C58.4673 43.6198 56.1898 42.4041 53.7047 42.0349V38.2992C53.7047 37.3478 52.9338 36.5742 51.9797 36.5742C51.0282 36.5742 50.2547 37.3478 50.2547 38.2992V41.8732H42.6647V38.2992C42.6647 37.3478 41.8938 36.5742 40.9397 36.5742C39.9882 36.5742 39.2147 37.3478 39.2147 38.2992V41.8732H35.3037H35.3064C33.0505 38.5687 29.3149 36.5877 25.3175 36.5742C22.2961 36.6066 19.3881 37.7332 17.1347 39.7466C14.8814 41.76 13.4368 44.5227 13.0675 47.52C9.62021 48.0079 6.46651 49.7248 4.18663 52.3554C1.90911 54.9888 0.661192 58.355 0.671944 61.8349C0.663859 64.9533 1.65571 67.9885 3.50204 70.5007C1.65577 73.0128 0.666597 76.0477 0.671944 79.1665C0.661163 82.6462 1.90911 86.0154 4.18663 88.646C6.46685 91.2766 9.62038 92.9962 13.0675 93.4841C13.4368 96.4813 14.8815 99.2439 17.1347 101.258C19.388 103.268 22.2963 104.395 25.3175 104.427C29.3174 104.419 33.0588 102.441 35.3145 99.1363H39.2254V102.702C39.2254 103.654 39.9963 104.427 40.9504 104.427C41.9019 104.427 42.6754 103.654 42.6754 102.702V99.1282H50.2654V102.702C50.2654 103.654 51.0363 104.427 51.9904 104.427C52.9419 104.427 53.7154 103.654 53.7154 102.702V98.9665C56.1978 98.5972 58.4753 97.3817 60.1652 95.5246C61.8551 93.6675 62.8497 91.2849 62.9818 88.7781H66.6124H66.6097C67.5638 88.7781 68.3347 88.0046 68.3347 87.0531C68.3347 86.099 67.5638 85.3281 66.6097 85.3281H63.0195V77.7381H66.5935C67.5449 77.7381 68.3185 76.9646 68.3185 76.0131C68.3185 75.059 67.5449 74.2881 66.5935 74.2881H63.0195V66.6981H66.5935C67.5449 66.6981 68.3185 65.9246 68.3185 64.9731C68.3185 64.019 67.5449 63.2481 66.5935 63.2481H63.0195V55.6581L66.6019 55.6762ZM36.1286 57.536V57.5387C40.3521 58.102 44.0366 60.6868 46.0019 64.4686C47.9668 68.2501 47.9668 72.7514 46.0019 76.5326C44.037 80.3142 40.3525 82.899 36.1286 83.4625V57.536ZM25.3174 100.974V100.976C20.509 100.898 16.6062 97.0602 16.455 92.2514C17.7891 90.6612 19.9481 90.0251 21.9318 90.6423C22.8402 90.928 23.8078 90.424 24.0962 89.5157C24.3819 88.6046 23.8779 87.637 22.9668 87.3513C19.6516 86.3271 16.0456 87.3917 13.8163 90.0493C11.1425 89.7555 8.67359 88.4807 6.8812 86.4727C5.09152 84.4646 4.10775 81.8664 4.1212 79.1765C4.11312 76.403 5.14005 73.7266 7.00247 71.6727C7.60352 71.015 7.60352 70.007 7.00247 69.3494C5.13999 67.2955 4.1131 64.6218 4.1212 61.8485C4.09695 58.9915 5.19392 56.2423 7.17497 54.1861C9.15602 52.1322 11.8648 50.9355 14.7195 50.8573C15.6629 50.8439 16.4203 50.0811 16.423 49.1377C16.3826 44.1757 20.3528 40.1085 25.3177 40.0251C28.3094 40.0413 31.0855 41.5857 32.6759 44.1193V96.883C31.0857 99.4166 28.3095 100.961 25.3177 100.977L25.3174 100.974ZM59.5696 88.2116C59.5642 92.3382 56.222 95.6803 52.0958 95.6855H36.1286V86.9443C41.5946 86.3729 46.4165 83.1224 48.9982 78.271C51.5776 73.4195 51.5776 67.6031 48.9982 62.7518C46.4161 57.9029 41.5945 54.65 36.1286 54.0785V45.3373H52.1032V45.34C56.219 45.3481 59.5529 48.6768 59.569 52.7897L59.5696 88.2116Z" fill="#3B82F6"/>
<path d="M51.9801 50.5977C51.0314 50.5977 50.1743 51.1691 49.8104 52.0477C49.4492 52.9264 49.6487 53.9344 50.3198 54.6056C50.991 55.2794 52.0017 55.4789 52.8804 55.115C53.7563 54.7511 54.3305 53.8967 54.3305 52.9453C54.3305 52.3227 54.0825 51.727 53.6405 51.285C53.2011 50.8456 52.6027 50.5977 51.9801 50.5977Z" fill="#3B82F6"/>
<path d="M51.9801 85.7041C51.0314 85.7041 50.1743 86.2782 49.8104 87.1542C49.4492 88.0329 49.6487 89.0436 50.3198 89.7147C50.991 90.3859 52.0017 90.5853 52.8804 90.2241C53.7563 89.8603 54.3305 89.0032 54.3305 88.0544C54.3305 87.4318 54.0825 86.8335 53.6405 86.3941C53.2011 85.9521 52.6027 85.7041 51.9801 85.7041Z" fill="#3B82F6"/>
</g>
<defs>
<clipPath id="clip0_1946_2648">
<rect width="69" height="69" fill="white" transform="translate(0 36)"/>
</clipPath>
</defs>
</svg>
